<svg width="97" height="112" viewBox="0 0 97 112" fill="none" xmlns="http://www.w3.org/2000/svg">
<g opacity="0.936">
<path fill-rule="evenodd" clip-rule="evenodd" d="M58.3013 1.29071C66.6412 3.05637 74.2412 6.45069 81.1016 11.4738C94.4911 23.1569 98.9654 37.7043 94.5241 55.1155C90.7325 67.3913 85.0288 78.7023 77.4136 89.0486C67.576 102.1 56.5922 114.007 44.4629 124.77C41.6452 126.937 38.6929 128.923 35.6057 130.727C41.2938 131.978 46.8364 133.74 52.2336 136.016C53.0994 136.43 53.8949 136.951 54.62 137.577C54.8681 138.109 54.7534 138.547 54.2758 138.892C53.4421 139.028 52.6034 139.069 51.7594 139.015C41.6338 137.98 31.9968 135.249 22.8478 130.823C20.0324 128.312 17.7481 125.372 15.9948 122.003C8.88378 105.266 3.92261 87.8329 1.11153 69.7038C-0.766501 56.5044 0.533914 43.6247 5.01297 31.0645C12.5152 11.6497 26.5989 1.54307 47.2644 0.744326C50.9982 0.672845 54.6772 0.854972 58.3013 1.29071ZM58.7601 5.47052C73.305 7.88253 83.7297 15.7115 90.0349 28.9576C93.2227 37.328 93.5311 45.8405 90.9599 54.4949C87.5243 66.013 82.2185 76.5952 75.0426 86.2421C65.9395 98.3816 55.8636 109.589 44.8148 119.865C40.7501 123.496 36.2782 126.541 31.399 129.002C29.3568 129.289 27.7862 128.565 26.6875 126.832C20.0747 114.133 15.4655 100.696 12.8595 86.519C10.9614 76.7377 9.81935 66.8622 9.43342 56.892C8.27115 40.8723 13.0592 26.9274 23.7982 15.0576C31.1643 8.66726 39.746 5.34411 49.5436 5.08827C52.6638 5.08067 55.736 5.20811 58.7601 5.47052Z" fill="#79BD8F"/>
<path fill-rule="evenodd" clip-rule="evenodd" d="M51.5396 23.567C60.0531 24.8936 66.1694 29.4089 69.8883 37.1132C72.5204 45.9814 70.6745 53.8261 64.3503 60.6467C56.0948 67.6646 47.2531 68.4216 37.825 62.9171C31.1123 58.4353 27.9459 52.1416 28.3257 44.0359C29.1213 34.5467 33.8791 28.0366 42.5983 24.506C45.564 23.6532 48.5443 23.3402 51.5396 23.567ZM52.1514 27.1623C42.273 26.4301 35.6466 30.7854 32.2725 40.2284C30.5978 47.8184 32.6832 54.0896 38.5287 59.0415C44.3036 61.0532 49.7187 60.3366 54.7744 56.8914C61.2803 51.2688 63.1874 44.377 60.4959 36.2165C59.2586 33.6642 57.8921 31.1727 56.3963 28.7417C55.0732 27.9816 53.6583 27.4552 52.1514 27.1623Z" fill="#79BD8F"/>
</g>
</svg>
