<svg width="177" height="54" viewBox="0 0 177 54" fill="none" xmlns="http://www.w3.org/2000/svg">
<path d="M0 42.3302V44.8582C0 44.8718 0.00355562 44.8849 0.00414823 44.8985C0.00592605 44.9418 0.0106671 44.9839 0.0171857 45.0265C0.0225192 45.0633 0.0272599 45.1 0.0355563 45.1356C0.0444454 45.1735 0.0574828 45.2096 0.0699276 45.2464C0.0823723 45.2831 0.0948172 45.3199 0.110818 45.3554C0.126818 45.3904 0.146374 45.423 0.165337 45.4562C0.184301 45.4893 0.203264 45.5225 0.22519 45.5533C0.247709 45.5854 0.273784 45.6144 0.299859 45.644C0.325341 45.6731 0.35023 45.7021 0.378083 45.7282C0.40475 45.7537 0.43438 45.7762 0.464011 45.7993C0.497789 45.8254 0.531568 45.8508 0.567717 45.874C0.579569 45.8811 0.589051 45.8911 0.600903 45.8977L13.2673 53.1725C13.2868 53.1837 13.3076 53.192 13.3271 53.2021C13.3745 53.2258 13.4231 53.2466 13.4735 53.2637C13.5073 53.2756 13.5416 53.2869 13.576 53.2957C13.6098 53.304 13.6436 53.3106 13.6785 53.3159C13.7165 53.3218 13.7538 53.3248 13.7917 53.3272C13.816 53.3283 13.8397 53.3343 13.864 53.3343C13.8889 53.3343 13.912 53.3283 13.9363 53.3272C13.9742 53.3248 14.0122 53.3218 14.0495 53.3159C14.0845 53.3106 14.1183 53.304 14.152 53.2957C14.1864 53.2875 14.2208 53.2756 14.2546 53.2637C14.3049 53.246 14.3541 53.2258 14.4009 53.2021C14.4211 53.192 14.4412 53.1837 14.4608 53.1731L26.5298 46.2408L38.5982 53.1725C38.6178 53.1837 38.6385 53.192 38.6581 53.2021C38.7049 53.2258 38.7535 53.246 38.8039 53.2637C38.8382 53.2756 38.872 53.2869 38.907 53.2957C38.9408 53.304 38.9745 53.3106 39.0089 53.3159C39.0468 53.3218 39.0842 53.3248 39.1227 53.3272C39.1476 53.3283 39.1707 53.3343 39.1956 53.3343C39.2205 53.3343 39.2436 53.3283 39.2679 53.3272C39.3058 53.3248 39.3437 53.3218 39.3811 53.3159C39.416 53.3106 39.4498 53.304 39.4836 53.2957C39.518 53.2875 39.5523 53.2756 39.5861 53.2637C39.6365 53.246 39.6857 53.2258 39.7325 53.2021C39.7526 53.192 39.7728 53.1837 39.7923 53.1731L52.4581 45.8982C52.47 45.8911 52.4794 45.8817 52.4913 45.8745C52.5274 45.852 52.5612 45.8265 52.595 45.7999C52.6246 45.7768 52.6543 45.7542 52.6809 45.7288C52.7088 45.7021 52.7337 45.6736 52.7591 45.6446C52.7852 45.615 52.8113 45.5859 52.8338 45.5539C52.8557 45.5231 52.8747 45.4899 52.8937 45.4568C52.9126 45.4236 52.9328 45.391 52.9482 45.356C52.9642 45.3205 52.9766 45.2837 52.9891 45.247C53.0015 45.2102 53.0146 45.1741 53.0234 45.1362C53.0317 45.1006 53.0365 45.0639 53.0418 45.0271C53.0477 44.9844 53.0531 44.9424 53.0549 44.8991C53.0555 44.8855 53.059 44.8724 53.059 44.8588V42.3308V37.0329V31.7338V30.3056C53.059 30.2333 53.0501 30.1622 53.0377 30.0923C53.0341 30.0739 53.0306 30.0561 53.027 30.0377C53.0116 29.9714 52.9926 29.9056 52.9666 29.8434C52.9636 29.8362 52.9594 29.8297 52.9565 29.8226C52.9316 29.7663 52.902 29.7124 52.8688 29.6608C52.8587 29.6454 52.8486 29.63 52.838 29.6152C52.7988 29.5601 52.7568 29.5068 52.7088 29.4588C52.7082 29.4582 52.7076 29.4576 52.707 29.457C52.6602 29.4102 52.6074 29.3687 52.5529 29.3296C52.5369 29.3183 52.5203 29.3076 52.5037 29.297C52.4883 29.2875 52.4741 29.2756 52.4587 29.2668L40.3938 22.3344V20.5003V20.4997V15.2018V9.90334V8.47575C40.3938 8.40345 40.3849 8.33234 40.3725 8.26241C40.3689 8.24404 40.3654 8.22626 40.3618 8.20789C40.3464 8.14152 40.3274 8.07574 40.3014 8.01352C40.2984 8.00641 40.2943 7.99989 40.2913 7.99278C40.2664 7.93648 40.2368 7.88255 40.2036 7.831C40.1935 7.81559 40.1834 7.80018 40.1728 7.78537C40.1337 7.73025 40.0916 7.67692 40.0436 7.62892C40.043 7.62832 40.0424 7.62773 40.0418 7.62714C39.995 7.58032 39.9423 7.53884 39.8877 7.49973C39.8717 7.48847 39.8551 7.4778 39.8386 7.46714C39.8231 7.45765 39.8089 7.4458 39.7935 7.43691L27.1266 0.159115C26.7568 -0.0530383 26.3022 -0.0530383 25.9325 0.159115L13.2673 7.43691C13.2513 7.4458 13.2376 7.45706 13.2222 7.46714C13.2056 7.4778 13.189 7.48847 13.173 7.49973C13.1179 7.53884 13.0658 7.58032 13.019 7.62714C13.0184 7.62773 13.0178 7.62832 13.0172 7.62892C12.9692 7.67692 12.9271 7.73025 12.888 7.78537C12.8773 7.80018 12.8673 7.81559 12.8572 7.831C12.824 7.88315 12.7938 7.93648 12.7689 7.99337C12.7659 8.00048 12.7618 8.00641 12.7588 8.01352C12.7327 8.07634 12.7138 8.14152 12.6984 8.20849C12.6942 8.22626 12.6907 8.24464 12.6877 8.26301C12.6753 8.33293 12.6664 8.40405 12.6664 8.47635V9.90334V15.2018V20.5003V22.335L0.601496 29.2668C0.585495 29.2756 0.571865 29.2869 0.556457 29.297C0.539864 29.3076 0.523271 29.3183 0.507271 29.3296C0.452159 29.3687 0.400009 29.4102 0.353193 29.457C0.352601 29.4576 0.352008 29.4582 0.351416 29.4588C0.303414 29.5068 0.261339 29.5601 0.222227 29.6152C0.210968 29.63 0.200894 29.6454 0.190819 29.6608C0.157633 29.713 0.127411 29.7663 0.102521 29.8232C0.0995581 29.8303 0.0960023 29.8362 0.0930392 29.8434C0.0669646 29.9062 0.0480013 29.9714 0.0325935 30.0383C0.0284453 30.0561 0.0248896 30.0745 0.0219265 30.0928C0.00948181 30.1628 0.000592563 30.2339 0.000592563 30.3062V31.7332V37.0323L0 42.3302ZM2.39709 32.3762L3.51653 33.0191L2.39709 34.1386V32.3762ZM2.39709 37.5283L5.66946 34.2559L6.88194 34.9522L2.39709 39.4371V37.5283ZM15.0629 10.5463L16.1817 11.1893L15.0629 12.3081V10.5463ZM15.0629 15.6978L18.3352 12.4261L19.5477 13.1224L15.0635 17.6072L15.0629 15.6978ZM50.6625 32.3762V34.138L49.5431 33.0185L50.6625 32.3762ZM47.3907 34.2559L50.6631 37.5283V39.4371L46.1783 34.9522L47.3907 34.2559ZM44.0247 36.189L50.6625 42.8268V44.1649L50.2998 44.3729L42.8128 36.8853L44.0247 36.189ZM46.935 46.306L40.3938 39.7648V38.2744L40.6593 38.1215L48.1469 45.6091L46.935 46.306ZM43.569 48.239L40.3938 45.0639V43.1551L44.7815 47.5427L43.569 48.239ZM33.6091 47.5421L37.9967 43.1545V45.0633L34.8215 48.2384L33.6091 47.5421ZM30.2437 45.6096L37.7312 38.1221L37.9967 38.2744V39.7648L31.4561 46.306L30.2437 45.6096ZM37.9967 48.453V50.0625L36.9745 49.4752L37.9967 48.453ZM40.3938 50.0625V48.453L41.4161 49.4752L40.3938 50.0625ZM28.0907 44.3729L27.7281 44.1649V42.8268L34.3658 36.189L35.5783 36.8853L28.0907 44.3729ZM25.3316 16.4445V17.9349L18.7904 24.4755L17.5779 23.7792L25.0655 16.2916L25.3316 16.4445ZM25.3316 21.3246V23.2334L22.1564 26.4086L20.9439 25.7123L25.3316 21.3246ZM25.3316 26.6231V28.2327L24.3093 27.6454L25.3316 26.6231ZM27.7281 39.4365V37.5277L31.0004 34.2553L32.2129 34.9516L27.7281 39.4365ZM27.7281 34.1386V32.3767L28.8475 33.0197L27.7281 34.1386ZM27.7281 28.2327V26.6231L28.7503 27.6454L27.7281 28.2327ZM30.9032 26.4086L27.7281 23.2334V21.3246L32.1157 25.7123L30.9032 26.4086ZM34.2692 24.4755L27.7281 17.9349V16.4445L27.9935 16.2922L35.4811 23.7798L34.2692 24.4755ZM37.9967 10.5463V12.3081L36.8779 11.1893L37.9967 10.5463ZM34.725 12.4255L37.9973 15.6973V17.606L33.5131 13.1212L34.725 12.4255ZM31.3595 14.3586L37.9967 20.9963V22.3344L37.6341 22.5424L30.1471 15.0549L31.3595 14.3586ZM15.4255 22.5424L15.0629 22.3344V20.9963L21.7001 14.3586L22.9125 15.0549L15.4255 22.5424ZM25.3316 32.3762V34.138L24.2121 33.0185L25.3316 32.3762ZM22.0592 34.2559L25.3316 37.5283V39.4371L20.8467 34.9522L22.0592 34.2559ZM18.6938 36.189L25.3316 42.8268V44.1649L24.9689 44.3729L17.4813 36.8853L18.6938 36.189ZM21.6035 46.306L15.0629 39.7648V38.2744L15.3284 38.1221L22.8159 45.6096L21.6035 46.306ZM18.2381 48.239L15.0629 45.0639V43.1551L19.4505 47.5427L18.2381 48.239ZM8.27812 47.5421L12.6658 43.1545V45.0633L9.49059 48.2384L8.27812 47.5421ZM4.91271 45.6096L12.4003 38.1221L12.6658 38.275V39.7654L6.12459 46.306L4.91271 45.6096ZM12.6658 48.453V50.0625L11.6435 49.4752L12.6658 48.453ZM15.0629 50.0625V48.453L16.0851 49.4752L15.0629 50.0625ZM2.75917 44.3729L2.3965 44.1649V42.8268L9.03428 36.189L10.2468 36.8853L2.75917 44.3729ZM39.1956 36.1985L28.934 30.3044L39.1956 24.4103L49.4554 30.3056L39.1956 36.1985ZM26.5298 2.5805L36.7896 8.47575L26.5298 14.3686L16.27 8.47575L26.5298 2.5805ZM13.864 24.4103L24.1256 30.3044L13.864 36.1985L3.60423 30.3056L13.864 24.4103Z" fill="#79BD8F"/>
<path d="M86.4043 20.351C86.4334 20.3511 86.4479 20.3911 86.4478 20.4712C86.4476 20.5513 86.433 20.5913 86.4038 20.5913L83.8046 20.5863C83.608 20.5859 83.437 20.5346 83.2916 20.4324C83.1462 20.3302 82.9101 20.0567 82.5833 19.612C82.2492 19.1745 81.6575 18.3397 80.808 17.1076C80.1327 16.138 79.6426 15.4672 79.3375 15.0953C79.0397 14.7234 78.7308 14.4571 78.4107 14.2963C78.0907 14.1355 77.6649 14.0546 77.1334 14.0535C77.0023 14.0533 76.9113 14.0604 76.8603 14.0749L76.8511 18.902C76.8503 19.317 76.8934 19.6229 76.9804 19.8196C77.0746 20.0237 77.2418 20.1587 77.482 20.2247C77.7221 20.2979 78.1115 20.3351 78.6503 20.3361C78.6794 20.3362 78.6939 20.3763 78.6938 20.4563C78.6936 20.5364 78.679 20.5764 78.6498 20.5764C78.2203 20.5756 77.8817 20.5676 77.6342 20.5526L76.1381 20.5279L74.7401 20.547C74.4853 20.5611 74.1394 20.5677 73.7026 20.5669C73.6735 20.5668 73.659 20.5268 73.6591 20.4467C73.6593 20.3666 73.6739 20.3266 73.703 20.3266C74.2273 20.3276 74.6132 20.292 74.8609 20.2196C75.1086 20.1546 75.2763 20.0202 75.364 19.8165C75.4591 19.6201 75.507 19.3144 75.5078 18.8994L75.5262 9.31067C75.527 8.90295 75.4839 8.60072 75.3969 8.40397C75.3171 8.21452 75.1536 8.07951 74.9062 7.99895C74.6588 7.92566 74.273 7.88852 73.7488 7.88751C73.7196 7.88746 73.7052 7.84374 73.7053 7.75637C73.7055 7.67629 73.7201 7.63627 73.7492 7.63633L74.7649 7.66012C75.34 7.69035 75.8059 7.7058 76.1627 7.70649C76.5631 7.70725 77.0692 7.69366 77.6808 7.66572L78.6747 7.64578C78.7038 7.64584 78.7183 7.68591 78.7181 7.766C78.718 7.85337 78.7033 7.89702 78.6742 7.89697C78.15 7.89596 77.764 7.93526 77.5163 8.01488C77.2686 8.09449 77.0972 8.23614 77.0022 8.43982C76.9145 8.63623 76.8702 8.94194 76.8694 9.35694L76.861 13.7254C77.6037 13.6977 78.0661 13.684 78.2481 13.6844L78.6412 13.6851L81.1489 10.1952C81.7694 9.3445 82.08 8.75172 82.0806 8.4168C82.0809 8.23478 81.9975 8.10357 81.8302 8.02316C81.6556 7.94274 81.3899 7.90218 81.0331 7.9015C81.004 7.90144 80.9896 7.85773 80.9897 7.77036C80.9899 7.69027 81.0045 7.65025 81.0336 7.65031L81.9182 7.67385C82.4424 7.70398 82.9338 7.71949 83.3925 7.72037C83.8584 7.72126 84.339 7.70762 84.8341 7.67945L85.5877 7.65905C85.6241 7.65912 85.6423 7.6992 85.6421 7.77929C85.6419 7.86666 85.6237 7.91031 85.5873 7.91024C84.8665 7.90886 84.2291 8.08237 83.6751 8.43078C83.1283 8.77921 82.5338 9.37509 81.8915 10.2184L79.1107 13.7515C79.4455 13.8104 79.7329 13.9202 79.9729 14.0808C80.2128 14.2488 80.4563 14.4822 80.7032 14.7812C80.9502 15.0729 81.3169 15.5651 81.8034 16.2577L82.1084 16.6951C82.7546 17.6064 83.2775 18.3028 83.677 18.7841C84.0765 19.2726 84.4981 19.652 84.9417 19.9223C85.378 20.1925 85.8656 20.3354 86.4043 20.351Z" fill="#79BD8F"/>
<path d="M105.636 20.3879C105.687 20.388 105.713 20.4281 105.713 20.5082C105.712 20.5883 105.687 20.6283 105.636 20.6282C105.374 20.6277 104.966 20.6124 104.413 20.5822C103.86 20.5593 103.459 20.5476 103.212 20.5471C102.906 20.5465 102.52 20.5567 102.054 20.5776C101.61 20.6059 101.271 20.6198 101.038 20.6194C100.987 20.6193 100.962 20.5792 100.962 20.4991C100.962 20.419 100.988 20.379 101.039 20.3791C101.548 20.3801 101.92 20.3298 102.153 20.2284C102.393 20.1342 102.514 19.9706 102.514 19.7376C102.515 19.541 102.424 19.2423 102.243 18.8415L99.8718 13.7696L95.9621 13.7621L94.1738 17.9851C93.9763 18.4507 93.8773 18.8364 93.8767 19.1422C93.8751 19.9576 94.5515 20.3667 95.9057 20.3693C95.9785 20.3694 96.0148 20.4095 96.0147 20.4896C96.0145 20.5697 95.978 20.6097 95.9052 20.6095C95.6577 20.6091 95.301 20.5938 94.835 20.5638C94.3109 20.5409 93.8558 20.5291 93.47 20.5284C93.1059 20.5277 92.6909 20.5378 92.2249 20.5588C91.8098 20.5871 91.464 20.601 91.1873 20.6005C91.1218 20.6003 91.0891 20.5602 91.0892 20.4802C91.0894 20.4001 91.1222 20.3601 91.1878 20.3602C91.5736 20.3609 91.9014 20.2888 92.1711 20.1437C92.4407 19.9986 92.6961 19.7442 92.937 19.3807C93.178 19.0098 93.4448 18.4825 93.7373 17.7986L98.1256 7.49748C98.1548 7.45385 98.2021 7.4321 98.2677 7.43222C98.3405 7.43236 98.3841 7.45429 98.3986 7.498L103.261 17.7951C103.725 18.8153 104.124 19.5004 104.458 19.8505C104.785 20.2079 105.178 20.3871 105.636 20.3879ZM97.8161 9.39716L96.1486 13.3256L99.6652 13.3323L97.8161 9.39716Z" fill="#79BD8F"/>
<path d="M118.036 6.72753C117.556 6.7266 117.094 6.63471 116.65 6.45183C116.206 6.27624 115.85 6.04257 115.581 5.75083C115.312 5.45908 115.178 5.15667 115.179 4.8436C115.179 4.64702 115.234 4.49423 115.343 4.38523C115.445 4.27621 115.588 4.22188 115.77 4.22223C116.032 4.22273 116.214 4.29953 116.315 4.45262C116.417 4.61299 116.515 4.86801 116.609 5.21766C116.869 6.05545 117.338 6.475 118.015 6.4763C118.401 6.47704 118.718 6.36115 118.966 6.12865C119.214 5.89614 119.389 5.59432 119.492 5.2232C119.587 4.88847 119.689 4.63748 119.799 4.47023C119.908 4.31026 120.087 4.23052 120.335 4.23099C120.72 4.23173 120.913 4.44324 120.912 4.86553C120.912 5.18588 120.773 5.49141 120.495 5.78211C120.225 6.07282 119.868 6.30148 119.424 6.46808C118.979 6.64197 118.517 6.72845 118.036 6.72753ZM124.989 20.4251C125.011 20.4251 125.021 20.4652 125.021 20.5453C125.021 20.6254 125.01 20.6654 124.988 20.6654C124.544 20.6645 124.198 20.6566 123.951 20.6415L122.52 20.6169L121.013 20.6359C120.765 20.65 120.434 20.6566 120.019 20.6558C119.99 20.6558 119.975 20.6157 119.976 20.5356C119.976 20.4555 119.99 20.4155 120.02 20.4156C120.558 20.4166 120.952 20.3809 121.199 20.3086C121.447 20.2436 121.615 20.1092 121.702 19.9055C121.797 19.7091 121.845 19.4034 121.846 18.9884L121.863 10.4371L114.147 18.6569L114.147 18.9736C114.146 19.3886 114.189 19.6945 114.276 19.8912C114.363 20.0953 114.53 20.2303 114.778 20.2963C115.025 20.3696 115.418 20.4067 115.957 20.4078C115.986 20.4078 116 20.4479 116 20.528C116 20.6081 115.986 20.6481 115.956 20.648C115.534 20.6472 115.199 20.6393 114.952 20.6242L113.456 20.5995L112.025 20.6186C111.777 20.6327 111.435 20.6393 110.998 20.6385C110.969 20.6384 110.955 20.5984 110.955 20.5183C110.955 20.4382 110.97 20.3982 110.999 20.3982C111.523 20.3992 111.912 20.3636 112.167 20.2913C112.422 20.2262 112.594 20.0919 112.682 19.8882C112.769 19.6918 112.814 19.386 112.814 18.971L112.833 9.3823C112.834 8.97458 112.79 8.67234 112.703 8.47559C112.616 8.28613 112.449 8.15111 112.202 8.07055C111.947 7.99725 111.558 7.9601 111.034 7.95909C111.012 7.95905 111.001 7.91535 111.001 7.82798C111.001 7.74789 111.012 7.70787 111.034 7.70791L112.093 7.73178C112.676 7.76203 113.138 7.77747 113.48 7.77813C113.881 7.7789 114.383 7.7653 114.987 7.73734L115.981 7.71741C116.01 7.71746 116.025 7.75753 116.025 7.83762C116.025 7.92499 116.01 7.96865 115.981 7.96859C115.457 7.96759 115.067 8.00688 114.812 8.08648C114.557 8.16608 114.386 8.30773 114.298 8.51142C114.21 8.70783 114.166 9.01354 114.165 9.42854L114.149 17.9579L121.864 9.78188L121.864 9.44332C121.865 9.02832 121.819 8.72244 121.724 8.52568C121.637 8.32165 121.47 8.17935 121.223 8.09879C120.975 8.01822 120.582 7.97743 120.043 7.97639C120.014 7.97634 120 7.93262 120 7.84525C120 7.76517 120.015 7.72515 120.044 7.72521L121.038 7.74896C121.642 7.77924 122.144 7.79476 122.545 7.79553C122.887 7.79619 123.364 7.78254 123.975 7.7546L125.013 7.73475C125.035 7.73479 125.046 7.77485 125.046 7.85494C125.045 7.94231 125.034 7.98597 125.013 7.98593C124.488 7.98492 124.099 8.02058 123.844 8.0929C123.596 8.17251 123.428 8.30688 123.341 8.49602C123.253 8.69243 123.209 8.9945 123.208 9.40222L123.189 18.991C123.189 19.406 123.232 19.7118 123.319 19.9086C123.406 20.1126 123.573 20.2476 123.82 20.3136C124.075 20.3869 124.464 20.4241 124.989 20.4251Z" fill="#79BD8F"/>
<path d="M134.241 8.12379C133.367 8.12211 132.715 8.34292 132.284 8.78622C131.847 9.22223 131.529 9.97154 131.33 11.0342C131.33 11.0633 131.294 11.0778 131.221 11.0776C131.148 11.0775 131.112 11.0629 131.112 11.0337C131.164 10.5387 131.227 9.89087 131.301 9.09013C131.368 8.28937 131.402 7.68877 131.403 7.28833C131.403 7.22281 131.443 7.19012 131.523 7.19027C131.596 7.19041 131.632 7.22325 131.632 7.28877C131.632 7.59456 132.003 7.74817 132.745 7.7496C133.917 7.79553 135.304 7.82004 136.906 7.82311C137.721 7.82468 138.584 7.81177 139.494 7.7844L140.903 7.76526C141.398 7.76621 141.766 7.73051 142.006 7.65817C142.247 7.5931 142.404 7.45871 142.477 7.25499C142.492 7.19677 142.532 7.16772 142.597 7.16785C142.67 7.16799 142.706 7.19718 142.706 7.25543C142.662 7.65579 142.617 8.26 142.572 9.06808C142.534 9.88346 142.514 10.546 142.513 11.0556C142.513 11.0847 142.47 11.0992 142.382 11.0991C142.302 11.0989 142.262 11.0843 142.262 11.0551C142.22 9.97751 142 9.22352 141.6 8.79319C141.201 8.35558 140.539 8.13588 139.614 8.13411C138.995 8.13292 138.554 8.16119 138.292 8.21894C138.03 8.2694 137.851 8.38555 137.756 8.56739C137.661 8.74194 137.614 9.044 137.613 9.47357L137.594 19.0186C137.594 19.4482 137.64 19.7577 137.735 19.9472C137.829 20.144 138.014 20.2754 138.291 20.3414C138.567 20.4148 139 20.452 139.59 20.4531C139.634 20.4532 139.656 20.4933 139.655 20.5734C139.655 20.6535 139.633 20.6935 139.59 20.6934C139.138 20.6925 138.774 20.6846 138.498 20.6695L136.881 20.6445L135.331 20.6634C135.054 20.6774 134.675 20.684 134.195 20.683C134.166 20.683 134.151 20.6429 134.151 20.5628C134.151 20.4827 134.166 20.4427 134.195 20.4428C134.785 20.4439 135.218 20.4083 135.495 20.3361C135.772 20.2711 135.961 20.1367 136.064 19.9331C136.173 19.7367 136.228 19.431 136.229 19.016L136.248 9.42726C136.248 9.00498 136.198 8.70637 136.096 8.53144C136.002 8.35652 135.824 8.24696 135.562 8.20277C135.3 8.15131 134.86 8.12498 134.241 8.12379Z" fill="#79BD8F"/>
<path d="M161.017 20.4943C161.068 20.4944 161.094 20.5345 161.094 20.6145C161.094 20.6946 161.068 20.7346 161.017 20.7345C160.755 20.734 160.347 20.7187 159.794 20.6885C159.241 20.6656 158.84 20.6539 158.593 20.6534C158.287 20.6528 157.901 20.663 157.435 20.684C156.991 20.7122 156.652 20.7262 156.419 20.7257C156.361 20.7256 156.332 20.6855 156.332 20.6054C156.332 20.5253 156.361 20.4853 156.42 20.4854C156.929 20.4864 157.301 20.4362 157.534 20.3347C157.774 20.2405 157.895 20.0769 157.895 19.8439C157.896 19.6473 157.805 19.3487 157.624 18.9479L155.253 13.8759L151.343 13.8684L149.555 18.0914C149.357 18.557 149.258 18.9427 149.258 19.2485C149.256 20.064 149.933 20.473 151.287 20.4756C151.36 20.4757 151.396 20.5158 151.396 20.5959C151.396 20.676 151.359 20.716 151.286 20.7159C151.039 20.7154 150.682 20.7001 150.216 20.6701C149.692 20.6473 149.237 20.6355 148.851 20.6347C148.487 20.634 148.072 20.6442 147.606 20.6651C147.191 20.6934 146.845 20.7073 146.568 20.7068C146.503 20.7067 146.47 20.6666 146.47 20.5865C146.47 20.5064 146.503 20.4664 146.569 20.4665C146.955 20.4673 147.282 20.3951 147.552 20.25C147.822 20.1049 148.077 19.8506 148.318 19.487C148.559 19.1161 148.826 18.5888 149.118 17.905L153.507 7.6038C153.536 7.56017 153.583 7.53842 153.649 7.53854C153.722 7.53868 153.765 7.56061 153.78 7.60432L158.642 17.9014C159.106 18.9216 159.505 19.6068 159.839 19.9569C160.166 20.3143 160.559 20.4934 161.017 20.4943ZM153.197 9.50349L151.53 13.4319L155.046 13.4387L153.197 9.50349Z" fill="#79BD8F"/>
<path d="M169.626 18.9928C169.625 19.4369 169.683 19.7574 169.799 19.9542C169.915 20.1583 170.144 20.3007 170.486 20.3814C170.821 20.4694 171.356 20.5141 172.091 20.5156C172.128 20.5156 172.146 20.5557 172.146 20.6358C172.146 20.7159 172.127 20.7559 172.091 20.7558C171.523 20.7547 171.079 20.7466 170.759 20.7314L168.957 20.7061L167.57 20.7253C167.308 20.7394 166.958 20.746 166.521 20.7451C166.492 20.7451 166.478 20.705 166.478 20.6249C166.478 20.5448 166.493 20.5048 166.522 20.5049C167.046 20.5059 167.428 20.4702 167.669 20.3978C167.909 20.3328 168.073 20.1984 168.161 19.9947C168.241 19.7983 168.282 19.4926 168.283 19.0776L168.301 9.48882C168.302 9.0811 168.262 8.77887 168.183 8.58214C168.096 8.39267 167.932 8.25766 167.692 8.17711C167.452 8.10384 167.07 8.0667 166.546 8.0657C166.516 8.06564 166.502 8.02193 166.502 7.93456C166.502 7.85447 166.517 7.81446 166.546 7.81451L167.584 7.83835C168.159 7.86857 168.621 7.88402 168.97 7.88469C169.313 7.88535 169.699 7.86425 170.128 7.82139C170.288 7.8217 170.55 7.81128 170.915 7.79014C171.271 7.76898 171.581 7.75865 171.843 7.75915C173.11 7.76159 174.125 8.04749 174.888 8.61685C175.659 9.18623 176.043 10.0497 176.041 11.2074C176.039 12.1175 175.812 12.8815 175.359 13.4995C174.907 14.1175 174.331 14.5787 173.631 14.8832C172.924 15.1876 172.2 15.3391 171.457 15.3377C171.057 15.3369 170.725 15.2999 170.463 15.2266C170.42 15.2265 170.398 15.1937 170.398 15.1282C170.398 15.0845 170.409 15.0408 170.431 14.9972C170.453 14.9608 170.479 14.9499 170.508 14.9646C170.726 15.0159 170.973 15.0419 171.25 15.0424C172.16 15.0442 172.929 14.7508 173.556 14.1622C174.183 13.5664 174.498 12.7115 174.5 11.5976C174.502 10.5055 174.209 9.64578 173.621 9.0185C173.025 8.39121 172.265 8.07668 171.34 8.0749C170.845 8.07395 170.488 8.09875 170.27 8.1493C170.051 8.20712 169.891 8.33423 169.788 8.53061C169.693 8.73429 169.645 9.06911 169.644 9.53508L169.626 18.9928Z" fill="#79BD8F"/>
<path d="M86.9067 44.3085C87.0304 44.3087 87.1032 44.3161 87.1251 44.3308C87.1469 44.3526 87.1576 44.4255 87.1574 44.5492C87.1573 44.622 87.1423 44.8222 87.1126 45.1498C87.0164 45.9214 86.9673 46.8678 86.9651 47.989C86.965 48.0546 86.9213 48.0872 86.8339 48.0871C86.7538 48.0869 86.7138 48.0541 86.7139 47.9886C86.7162 46.8018 86.4558 45.9312 85.9326 45.3769C85.4095 44.8226 84.5618 44.5443 83.3896 44.542L76.9134 44.5296C76.0251 44.5279 75.3402 44.785 74.8587 45.301C74.3772 45.817 74.1352 46.7048 74.1328 47.9644C74.1327 48.0299 74.0889 48.0626 74.0016 48.0624C73.9215 48.0623 73.8815 48.0294 73.8816 47.9639C73.8834 47.0247 73.8306 46.1145 73.7231 45.2333C73.6799 44.9711 73.6585 44.7272 73.6589 44.5015C73.6591 44.3923 73.6702 44.3231 73.6921 44.294C73.714 44.2722 73.7722 44.2614 73.8669 44.2616C74.9299 44.2637 75.8339 43.6174 76.5791 42.3229C77.3315 41.0356 77.8913 39.5368 78.2586 37.8266C78.626 36.1163 78.8107 34.675 78.813 33.5028C78.8137 33.117 78.7706 32.8111 78.6837 32.5852C78.5968 32.3593 78.4005 32.1806 78.095 32.0489C77.7895 31.9173 77.3272 31.8509 76.7084 31.8497C76.6793 31.8497 76.6648 31.8059 76.665 31.7186C76.6651 31.6385 76.6797 31.5985 76.7089 31.5985L86.5597 31.6174C86.5888 31.6175 86.6033 31.6576 86.6032 31.7376C86.603 31.825 86.5884 31.8687 86.5592 31.8686C86.035 31.8676 85.6491 31.9033 85.4014 31.9756C85.1537 32.0552 84.9823 32.1896 84.8873 32.3787C84.7996 32.5751 84.7553 32.8772 84.7545 33.2849L84.7361 42.8737C84.7351 43.4124 84.7635 43.762 84.8215 43.9222C84.8721 44.0898 85.0285 44.1957 85.2905 44.2399C85.5525 44.284 86.0912 44.3069 86.9067 44.3085ZM83.3929 42.8274L83.4111 33.326C83.412 32.86 83.3872 32.5506 83.3365 32.3976C83.2931 32.2446 83.1731 32.1497 82.9766 32.1129C82.7874 32.0834 82.3943 32.0681 81.7972 32.067L80.7816 32.065C80.3666 32.0642 80.0789 32.1219 79.9185 32.2381C79.7508 32.3543 79.6375 32.5579 79.5787 32.849C79.5272 33.1329 79.4643 33.6752 79.3899 34.4759C79.3083 35.2912 79.1461 36.3175 78.9035 37.5548C78.6609 38.7848 78.2981 40.0363 77.8151 41.3096C77.3394 42.5755 76.7479 43.499 76.0406 44.0801L81.6759 44.0909C82.3093 44.0922 82.7243 44.0748 82.921 44.0387C83.1249 44.0027 83.2525 43.9083 83.3038 43.7555C83.3623 43.6027 83.392 43.2934 83.3929 42.8274Z" fill="#79BD8F"/>
<path d="M104.995 31.6528C105.024 31.6529 105.038 31.6929 105.038 31.773C105.038 31.8604 105.023 31.9041 104.994 31.904C104.499 31.9031 103.996 32.0841 103.486 32.4472C102.976 32.8102 102.52 33.3081 102.118 33.9407L99.3357 38.2056L99.3267 42.9017C99.3259 43.3312 99.3654 43.6407 99.4451 43.8302C99.5321 44.0269 99.6956 44.1583 99.9358 44.2243C100.176 44.2976 100.558 44.3347 101.082 44.3357C101.126 44.3358 101.148 44.3759 101.148 44.456C101.147 44.536 101.126 44.576 101.082 44.576C100.652 44.5751 100.321 44.5672 100.088 44.5522L98.6356 44.5276L97.2158 44.5467C96.9682 44.5608 96.6296 44.5674 96.2001 44.5666C96.1564 44.5665 96.1346 44.5264 96.1348 44.4463C96.1349 44.3662 96.1569 44.3262 96.2005 44.3263C96.7248 44.3273 97.1071 44.2917 97.3475 44.2193C97.5879 44.1543 97.7519 44.0199 97.8397 43.8162C97.9347 43.6198 97.9826 43.3141 97.9834 42.8991L97.9918 38.5306L94.5613 33.4894C94.1766 32.8843 93.8134 32.465 93.4716 32.2314C93.1226 31.9977 92.7224 31.8804 92.271 31.8796C92.2273 31.8795 92.2055 31.8358 92.2057 31.7484C92.2059 31.6683 92.2278 31.6283 92.2715 31.6284C92.4389 31.6287 92.6864 31.6437 93.014 31.6735L93.7348 31.6967C94.208 31.6976 94.8014 31.6842 95.515 31.6565L96.6399 31.6368C96.669 31.6368 96.6835 31.6769 96.6834 31.757C96.6832 31.8444 96.6685 31.888 96.6394 31.888C95.9186 31.8866 95.558 32.0279 95.5574 32.3118C95.5571 32.4647 95.626 32.6396 95.7639 32.8364L99.0855 37.7246L101.616 33.8633C101.922 33.3761 102.076 32.9687 102.077 32.641C102.078 32.146 101.707 31.8977 100.964 31.8963C100.935 31.8962 100.921 31.8525 100.921 31.7651C100.921 31.685 100.936 31.645 100.965 31.6451L101.937 31.6688C102.461 31.6989 102.941 31.7144 103.378 31.7152C103.618 31.7157 103.902 31.7017 104.23 31.6732L104.995 31.6528Z" fill="#79BD8F"/>
<path d="M117.206 30.6825C116.726 30.6815 116.264 30.5896 115.82 30.4068C115.383 30.2312 115.031 29.9975 114.762 29.7058C114.493 29.414 114.359 29.1116 114.36 28.7985C114.36 28.602 114.411 28.4492 114.513 28.3402C114.615 28.2311 114.758 28.1768 114.94 28.1772C115.202 28.1777 115.383 28.2545 115.485 28.4075C115.587 28.5679 115.688 28.8229 115.789 29.1726C116.05 30.0104 116.515 30.4299 117.185 30.4312C117.578 30.432 117.899 30.3161 118.147 30.0836C118.395 29.8511 118.566 29.5493 118.662 29.1781C118.757 28.8434 118.859 28.5924 118.969 28.4252C119.086 28.2652 119.268 28.1855 119.515 28.1859C119.901 28.1867 120.094 28.3982 120.093 28.8205C120.092 29.1408 119.954 29.4464 119.676 29.7371C119.399 30.0278 119.038 30.2564 118.594 30.423C118.157 30.5969 117.694 30.6834 117.206 30.6825ZM124.159 44.38C124.188 44.3801 124.202 44.4201 124.202 44.5002C124.202 44.5803 124.187 44.6203 124.158 44.6203C123.714 44.6194 123.368 44.6115 123.121 44.5964L121.69 44.5719L120.183 44.5908C119.935 44.6049 119.604 44.6115 119.189 44.6107C119.16 44.6107 119.145 44.5706 119.146 44.4905C119.146 44.4104 119.16 44.3704 119.19 44.3705C119.728 44.3715 120.122 44.3359 120.369 44.2635C120.617 44.1985 120.788 44.0641 120.883 43.8604C120.971 43.664 121.015 43.3583 121.016 42.9433L121.033 34.3921L113.317 42.6118L113.317 42.9285C113.316 43.3435 113.359 43.6494 113.446 43.8462C113.54 44.0502 113.711 44.1852 113.959 44.2512C114.206 44.3245 114.599 44.3617 115.138 44.3627C115.167 44.3628 115.181 44.4028 115.181 44.4829C115.181 44.563 115.166 44.603 115.137 44.603C114.708 44.6021 114.369 44.5942 114.122 44.5792L112.626 44.5545L111.206 44.5736C110.958 44.5877 110.612 44.5943 110.168 44.5934C110.139 44.5934 110.125 44.5533 110.125 44.4732C110.125 44.3931 110.14 44.3531 110.169 44.3532C110.693 44.3542 111.082 44.3185 111.337 44.2462C111.592 44.1812 111.764 44.0468 111.852 43.8431C111.947 43.6467 111.994 43.341 111.995 42.926L112.014 33.3372C112.014 32.9295 111.968 32.6273 111.873 32.4305C111.786 32.2411 111.619 32.106 111.372 32.0255C111.124 31.9522 110.739 31.915 110.214 31.914C110.185 31.914 110.171 31.8703 110.171 31.7829C110.171 31.7028 110.186 31.6628 110.215 31.6629L111.263 31.6867C111.846 31.717 112.308 31.7324 112.65 31.7331C113.051 31.7338 113.557 31.7202 114.168 31.6923L115.162 31.6724C115.191 31.6724 115.206 31.7125 115.206 31.7926C115.205 31.8799 115.191 31.9236 115.162 31.9235C114.637 31.9225 114.248 31.9618 113.993 32.0414C113.738 32.121 113.563 32.2627 113.468 32.4663C113.38 32.6628 113.336 32.9685 113.335 33.3835L113.319 41.9129L121.034 33.7368L121.034 33.3982C121.035 32.9832 120.992 32.6774 120.905 32.4806C120.811 32.2766 120.64 32.1343 120.393 32.0537C120.145 31.9731 119.752 31.9324 119.213 31.9313C119.184 31.9313 119.17 31.8875 119.17 31.8002C119.17 31.7201 119.185 31.6801 119.214 31.6801L120.208 31.7039C120.812 31.7342 121.314 31.7497 121.715 31.7505C122.064 31.7511 122.541 31.7375 123.145 31.7095L124.183 31.6897C124.212 31.6897 124.227 31.7298 124.226 31.8099C124.226 31.8973 124.212 31.9409 124.183 31.9409C123.658 31.9399 123.272 31.9755 123.025 32.0478C122.777 32.1275 122.606 32.2618 122.511 32.4509C122.423 32.6474 122.379 32.9494 122.378 33.3571L122.359 42.9459C122.359 43.3609 122.402 43.6668 122.489 43.8635C122.583 44.0676 122.754 44.2026 123.001 44.2686C123.249 44.3419 123.634 44.379 124.159 44.38Z" fill="#79BD8F"/>
<path d="M144.417 44.4189C144.461 44.419 144.483 44.4591 144.483 44.5392C144.483 44.6192 144.461 44.6592 144.417 44.6592C143.987 44.6583 143.649 44.6504 143.401 44.6354L141.982 44.6108L140.464 44.6297C140.216 44.6438 139.885 44.6505 139.47 44.6497C139.433 44.6496 139.415 44.6095 139.415 44.5294C139.415 44.4493 139.434 44.4093 139.47 44.4094C140.009 44.4104 140.402 44.3748 140.65 44.3025C140.897 44.2374 141.069 44.103 141.164 43.8994C141.252 43.7029 141.296 43.3972 141.297 42.9822L141.306 38.1333L133.355 38.118L133.346 42.967C133.345 43.382 133.392 43.6879 133.486 43.8846C133.573 44.0886 133.741 44.2237 133.988 44.2897C134.235 44.3629 134.628 44.4001 135.167 44.4011C135.196 44.4012 135.211 44.4413 135.211 44.5214C135.211 44.6014 135.196 44.6415 135.167 44.6414C134.737 44.6406 134.399 44.6326 134.151 44.6176L132.666 44.5929L131.235 44.612C130.988 44.6261 130.642 44.6327 130.198 44.6319C130.169 44.6318 130.154 44.5917 130.154 44.5116C130.154 44.4316 130.169 44.3915 130.198 44.3916C130.722 44.3926 131.112 44.357 131.367 44.2846C131.622 44.2196 131.797 44.0852 131.892 43.8816C131.98 43.6851 132.024 43.3794 132.025 42.9644L132.043 33.3757C132.044 32.968 132.001 32.6657 131.914 32.469C131.819 32.2795 131.649 32.1445 131.401 32.0639C131.154 31.9906 130.768 31.9535 130.244 31.9525C130.215 31.9524 130.2 31.9087 130.2 31.8213C130.201 31.7413 130.215 31.7012 130.244 31.7013L131.304 31.7252C131.879 31.7554 132.341 31.7709 132.691 31.7715C133.091 31.7723 133.593 31.7587 134.198 31.7307L135.192 31.7108C135.221 31.7109 135.235 31.7509 135.235 31.831C135.235 31.9184 135.22 31.962 135.191 31.962C134.667 31.961 134.277 32.0003 134.022 32.0799C133.767 32.1595 133.596 32.3011 133.508 32.5048C133.413 32.7012 133.365 33.0069 133.364 33.4219L133.356 37.6921L141.307 37.7073L141.315 33.4372C141.316 33.0222 141.273 32.7163 141.186 32.5195C141.091 32.3155 140.921 32.1732 140.673 32.0926C140.426 32.0121 140.033 31.9713 139.494 31.9702C139.458 31.9702 139.439 31.9265 139.44 31.8391C139.44 31.759 139.458 31.719 139.494 31.7191L140.488 31.7428C141.1 31.7731 141.606 31.7886 142.006 31.7894C142.378 31.7901 142.851 31.7765 143.426 31.7484L144.442 31.7286C144.485 31.7286 144.507 31.7687 144.507 31.8488C144.507 31.9362 144.485 31.9798 144.441 31.9797C143.917 31.9787 143.531 32.0144 143.283 32.0867C143.036 32.1663 142.868 32.3007 142.78 32.4898C142.685 32.6862 142.637 32.9883 142.637 33.396L142.618 42.9848C142.617 43.3998 142.664 43.7057 142.758 43.9024C142.845 44.1064 143.013 44.2415 143.26 44.3075C143.507 44.3807 143.893 44.4179 144.417 44.4189Z" fill="#79BD8F"/>
<path d="M158.083 31.5254C159.393 31.5279 160.543 31.8359 161.532 32.4494C162.528 33.0702 163.291 33.8834 163.821 34.8892C164.35 35.895 164.614 36.9658 164.612 38.1016C164.609 39.3538 164.276 40.5036 163.611 41.5507C162.947 42.5979 162.057 43.4262 160.942 44.0356C159.834 44.6378 158.632 44.9376 157.336 44.9352C156.047 44.9327 154.905 44.632 153.909 44.033C152.912 43.4268 152.142 42.6099 151.598 41.5823C151.054 40.5546 150.783 39.4329 150.785 38.217C150.788 36.7972 151.147 35.582 151.863 34.5714C152.585 33.5535 153.508 32.7908 154.63 32.2833C155.76 31.7758 156.91 31.5231 158.083 31.5254ZM157.208 32.0043C155.694 32.0013 154.506 32.4869 153.645 33.4608C152.791 34.4421 152.363 35.7882 152.359 37.4992L152.359 37.7395L162.996 37.7599C162.889 36.6312 162.585 35.6331 162.085 34.7657C161.577 33.8911 160.908 33.2127 160.079 32.7306C159.243 32.2484 158.286 32.0063 157.208 32.0043ZM158.058 44.4997C158.997 44.5015 159.842 44.2774 160.593 43.8274C161.344 43.3702 161.938 42.7015 162.377 41.8214C162.815 40.9412 163.036 39.8932 163.038 38.6774C163.038 38.4662 163.031 38.306 163.017 38.1968L152.38 38.1764C152.458 39.3633 152.747 40.4377 153.247 41.3998C153.755 42.3618 154.424 43.1166 155.253 43.6643C156.089 44.2192 157.024 44.4977 158.058 44.4997Z" fill="#79BD8F"/>
</svg>
