<svg width="124" height="112" viewBox="0 0 124 112" fill="none" xmlns="http://www.w3.org/2000/svg">
<g opacity="0.884">
<path fill-rule="evenodd" clip-rule="evenodd" d="M99.0271 0.0172955C100.551 -0.119169 101.447 0.551914 101.715 2.03055C101.242 6.61985 100.737 11.2056 100.203 15.7878C99.0832 17.1299 97.9629 17.1299 96.8429 15.7878C96.895 10.9657 97.231 6.1561 97.851 1.35946C98.0828 0.738643 98.4747 0.291232 99.0271 0.0172955Z" fill="#79BD8F"/>
<path fill-rule="evenodd" clip-rule="evenodd" d="M115.156 3.70826C117.529 3.44831 118.369 4.45494 117.677 6.72813C114.724 10.6835 111.644 14.5422 108.436 18.3043C106.018 18.6879 105.178 17.7369 105.916 15.4522C108.94 11.4831 112.02 7.56843 115.156 3.70826Z" fill="#79BD8F"/>
<path fill-rule="evenodd" clip-rule="evenodd" d="M-23.9596 19.4787C17.2611 19.4039 58.4805 19.5717 99.6991 19.982C99.8672 20.1498 100.035 20.3176 100.203 20.4853C101.217 52.2451 102.057 84.0094 102.723 115.779C105.18 115.348 107.252 116.019 108.94 117.792C109.445 118.98 109.557 120.21 109.276 121.483C108.833 122.15 108.217 122.542 107.428 122.658C63.4104 123.362 19.3905 123.809 -24.6316 124C-27.3572 123.346 -28.8133 121.613 -29 118.799C-27.4212 95.2283 -26.9171 71.6286 -27.4879 47.9998C-27.6354 42.2328 -27.9154 36.4726 -28.3279 30.7194C-28.0189 26.4885 -26.5628 22.7419 -23.9596 19.4787ZM-18.2471 23.5052C-18.168 23.3049 -18 23.1932 -17.743 23.1697C19.6029 23.4482 56.9583 23.616 94.3227 23.673C79.2111 38.2033 64.2017 52.8554 49.2948 67.629C46.7547 70.1103 44.0665 72.4034 41.2301 74.5076C31.5168 67.5867 22.108 60.2608 13.0036 52.5296C2.42813 43.0324 -7.98867 33.3574 -18.2471 23.5052ZM96.3389 27.1962C97.4767 55.9897 98.2609 84.8463 98.6911 113.766C58.8155 114.205 18.9399 114.653 -20.9353 115.108C-19.7614 86.8028 -19.7054 58.5053 -20.7673 30.2161C-5.54201 48.3326 11.7634 64.0471 31.1492 77.3597C33.825 78.6965 36.6251 79.6474 39.5499 80.2118C41.3383 79.6035 43.0184 78.7646 44.5904 77.6952C52.1386 71.8357 58.9153 65.1809 64.9201 57.7305C75.1532 47.2314 85.6263 37.0534 96.3389 27.1962Z" fill="#79BD8F"/>
<path fill-rule="evenodd" clip-rule="evenodd" d="M121.541 22.4986C123.728 22.7358 124.456 23.8542 123.725 25.854C119.204 27.2905 114.611 28.5209 109.948 29.545C108.267 29.2098 107.707 28.2031 108.268 26.5251C108.571 26.1221 108.963 25.8423 109.444 25.6862C113.545 24.7189 117.577 23.6566 121.541 22.4986Z" fill="#79BD8F"/>
</g>
</svg>
