<svg width="32" height="32" viewBox="0 0 32 32" fill="none" xmlns="http://www.w3.org/2000/svg">
<g clip-path="url(#clip0_67_19)">
<path d="M0 4.66666C0 3.55999 0.893333 2.66666 2 2.66666H23.3333C24.44 2.66666 25.3333 3.55999 25.3333 4.66666C25.3333 5.77332 24.44 6.66666 23.3333 6.66666H2C0.893333 6.66666 0 5.77332 0 4.66666ZM23.3333 24H2C0.893333 24 0 24.8933 0 26C0 27.1067 0.893333 28 2 28H23.3333C24.44 28 25.3333 27.1067 25.3333 26C25.3333 24.8933 24.44 24 23.3333 24ZM30 13.3333H8.66667C7.56 13.3333 6.66667 14.2267 6.66667 15.3333C6.66667 16.44 7.56 17.3333 8.66667 17.3333H30C31.1067 17.3333 32 16.44 32 15.3333C32 14.2267 31.1067 13.3333 30 13.3333Z" fill="#79BD8F"/>
</g>
<defs>
<clipPath id="clip0_67_19">
<rect width="32" height="32" fill="white"/>
</clipPath>
</defs>
</svg>
