<svg width="110" height="117" viewBox="0 0 110 117" fill="none" xmlns="http://www.w3.org/2000/svg">
<g opacity="0.873">
<path fill-rule="evenodd" clip-rule="evenodd" d="M91.4964 0.0446752C90.5066 -0.124916 89.7215 0.188329 89.1411 0.98441C87.5696 4.2773 86.4705 7.72299 85.8437 11.3215C86.0632 12.9996 87.0053 13.5738 88.67 13.0443C88.8271 12.8877 88.9841 12.7311 89.1411 12.5745C89.8738 9.23387 90.9205 5.99702 92.2815 2.86388C92.665 1.67916 92.4031 0.739421 91.4964 0.0446752Z" fill="#79BD8F"/>
<path fill-rule="evenodd" clip-rule="evenodd" d="M103.43 7.87579C102.045 7.59967 100.946 8.01732 100.133 9.12877C98.0388 11.8436 95.9454 14.5583 93.8517 17.2731C93.4969 19.9183 94.5436 20.6492 96.9921 19.4659C99.1145 16.59 101.313 13.7707 103.587 11.0082C104.255 9.90412 104.203 8.85995 103.43 7.87579Z" fill="#79BD8F"/>
<path fill-rule="evenodd" clip-rule="evenodd" d="M70.1416 7.87579C68.3321 7.76594 66.5528 7.92256 64.8029 8.34566C59.6922 11.1463 55.8713 15.1663 53.3405 20.4056C51.9797 23.1205 50.6187 25.8351 49.2579 28.5499C46.7202 33.8848 45.9875 39.4189 47.0596 45.1519C47.8378 48.5394 49.7745 50.993 52.8694 52.5132C55.8003 53.244 58.7316 53.9751 61.6625 54.7059C64.986 56.2314 66.0852 58.7897 64.96 62.3804C63.6875 68.3815 61.4892 74.0199 58.3651 79.2956C51.4088 91.1419 41.883 100.33 29.7874 106.861C29.4734 106.652 29.1593 106.444 28.8453 106.235C27.2072 101.239 24.4333 97.0099 20.5232 93.5482C14.6327 89.8535 8.87511 90.0625 3.25095 94.1747C-2.14677 99.8764 -6.49122 106.298 -9.78174 113.439C-11.8227 118.509 -11.2992 123.312 -8.21153 127.849C-1.88361 135.677 6.33389 139.383 16.4407 138.969C29.0199 138.302 40.3253 134.23 50.3571 126.752C63.2076 116.757 73.4139 104.593 80.976 90.2592C88.2932 77.1239 93.1084 63.1325 95.4219 48.2844C96.7287 37.8342 94.2163 28.4369 87.8849 20.0923C82.7563 14.8095 76.842 10.7373 70.1416 7.87579ZM69.1995 11.3215C67.6962 11.1554 66.3355 11.5209 65.117 12.4178C61.1192 15.362 58.0313 19.0688 55.8528 23.538C53.5185 27.7048 51.7388 32.0902 50.5141 36.6943C48.9376 42.2212 50.8218 45.9801 56.1668 47.9711C56.5503 47.7293 56.8643 47.4161 57.1089 47.0314C62.8257 35.9854 69.3682 25.4917 76.7365 15.5503C74.3369 13.8852 71.8246 12.4756 69.1995 11.3215ZM79.8769 17.8996C72.3079 27.6603 65.713 38.1017 60.0923 49.2241C62.544 49.932 65.0564 50.4019 67.6293 50.6337C69.5641 51.512 70.6108 53.026 70.7697 55.1758C66.3433 79.4303 53.4676 97.6508 32.1427 109.837C30.098 110.637 28.2137 110.376 26.49 109.054C24.9549 106.076 23.3323 103.152 21.6223 100.283C13.3401 109.594 6.37912 119.827 0.738632 130.981C7.12685 135.607 14.0357 136.599 21.4653 133.957C44.2487 123.343 61.7828 107.106 74.0672 85.2473C81.2439 70.3496 86.478 54.7917 89.7692 38.5738C90.7094 32.8286 89.3487 27.7123 85.6867 23.2248C83.8768 21.2611 81.9405 19.4859 79.8769 17.8996ZM12.9862 94.3314C9.54779 94.5328 6.61653 95.8381 4.19308 98.2469C0.631226 102.742 -2.56162 107.493 -5.38516 112.5C-8.83491 118.784 -7.78821 124.214 -2.24476 128.788C3.49905 117.427 10.565 106.985 18.953 97.4638C17.3388 95.667 15.3497 94.623 12.9862 94.3314Z" fill="#79BD8F"/>
<path fill-rule="evenodd" clip-rule="evenodd" d="M109.083 21.0321C104.833 21.5073 101.221 23.2821 98.2483 26.3572C97.7251 28.4444 98.5101 29.3318 100.604 29.0198C103.004 26.7253 105.831 25.1591 109.083 24.3211C110.306 23.2282 110.306 22.1319 109.083 21.0321Z" fill="#79BD8F"/>
</g>
</svg>
